<svg width="40" height="40" viewBox="0 0 40 40" fill="none" xmlns="http://www.w3.org/2000/svg">
<g clip-path="url(#clip0)">
<path d="M31.898 7.69629L29.3478 36.7568H10.6516L8.10188 7.69629L4.87109 7.97949L7.46734 37.5671C7.60398 38.9308 8.78727 40 10.1619 40H29.8376C31.2116 40 32.3954 38.9314 32.5343 37.5476L35.1289 7.97949L31.898 7.69629Z" fill="#6C63FF"/>
<path d="M25.9462 0H14.0543C12.564 0 11.3516 1.21242 11.3516 2.70273V7.83789H14.5948V3.2432H25.4055V7.83781H28.6487V2.70266C28.6489 1.21242 27.4365 0 25.9462 0Z" fill="#6C63FF"/>
<path d="M37.2972 6.21631H2.7027C1.80699 6.21631 1.08105 6.94225 1.08105 7.83795C1.08105 8.73365 1.80699 9.45959 2.7027 9.45959H37.2973C38.193 9.45959 38.9189 8.73365 38.9189 7.83795C38.9189 6.94225 38.1929 6.21631 37.2972 6.21631Z" fill="#6C63FF"/>
</g>
<defs>
<clipPath id="clip0">
<rect width="40" height="40" fill="white"/>
</clipPath>
</defs>
</svg>
